<svg id="visual" viewBox="0 0 960 400" width="960" height="400" xmlns="http://www.w3.org/2000/svg"
    xmlns:xlink="http://www.w3.org/1999/xlink" version="1.1">
    <rect x="0" y="0" width="960" height="400" fill="#4b0d49"></rect>
    <g transform="translate(470.63530519990934 198.07773637117293)">
        <path
            d="M76.6 -115.1C101.6 -103 125.8 -85.8 143.3 -61.4C160.8 -37 171.4 -5.4 171.6 27.9C171.8 61.1 161.5 96 137 111.7C112.5 127.3 73.9 123.6 40.5 129.6C7.1 135.6 -20.9 151.3 -51.1 152.4C-81.3 153.4 -113.6 139.9 -128.7 115.4C-143.8 90.9 -141.7 55.5 -144.9 21.8C-148.2 -11.8 -156.9 -43.7 -150.7 -73.7C-144.6 -103.7 -123.7 -131.8 -96.1 -142.7C-68.5 -153.6 -34.2 -147.3 -4.2 -140.7C25.8 -134.1 51.5 -127.2 76.6 -115.1"
            fill="#e63ce0"></path>
    </g>
</svg>