<svg id="visual" viewBox="0 0 960 540" width="960" height="540" xmlns="http://www.w3.org/2000/svg"
    xmlns:xlink="http://www.w3.org/1999/xlink" version="1.1">
    <rect x="0" y="0" width="960" height="540" fill="#4b0d49"></rect>
    <g transform="translate(483.6860910447248 274.9108036487998)">
        <path
            d="M135.3 -218.5C164.2 -191.9 169 -135.6 194.7 -86.7C220.4 -37.9 267.1 3.6 280 53.1C292.8 102.5 271.9 160 232.6 196.8C193.3 233.5 135.7 249.7 83.4 249.1C31.1 248.5 -15.9 231.2 -50.1 205.4C-84.4 179.5 -106 145 -150.1 117.2C-194.2 89.4 -260.9 68.2 -282.6 30.2C-304.2 -7.8 -280.8 -62.7 -256.6 -117.8C-232.4 -173 -207.5 -228.5 -164.5 -248.7C-121.6 -268.9 -60.8 -254 -3.8 -248C53.2 -242.1 106.3 -245.1 135.3 -218.5"
            fill="#e63ce0"></path>
    </g>
</svg>