<svg id="visual" viewBox="0 0 960 540" width="960" height="540" xmlns="http://www.w3.org/2000/svg"
    xmlns:xlink="http://www.w3.org/1999/xlink" version="1.1">
    <rect x="0" y="0" width="960" height="540" fill="#4b0d49"></rect>
    <g transform="translate(496.6509056986923 228.55222878475803)">
        <path
            d="M123.1 -189.3C157.2 -169.7 181 -131.6 195.5 -91.7C210 -51.7 215.4 -10 218.7 38C222 86 223.2 140.2 202.3 188.9C181.3 237.6 138.2 280.7 88.7 289.4C39.3 298.1 -16.6 272.3 -59 241.4C-101.4 210.4 -130.4 174.3 -162.7 139.6C-195 104.9 -230.6 71.6 -245.6 29.6C-260.6 -12.4 -254.9 -63.1 -230.9 -101.2C-206.9 -139.3 -164.5 -164.7 -123 -180.9C-81.5 -197.1 -40.7 -204 1.9 -207C44.5 -209.9 89 -208.9 123.1 -189.3"
            fill="#e63ce0"></path>
    </g>
</svg>