<svg id="visual" viewBox="0 0 960 400" width="960" height="400" xmlns="http://www.w3.org/2000/svg"
    xmlns:xlink="http://www.w3.org/1999/xlink" version="1.1">
    <rect x="0" y="0" width="960" height="400" fill="#4b0d49"></rect>
    <g transform="translate(500.5651107016746 197.51324297311953)">
        <path
            d="M76.6 -117C102.4 -102.6 128.5 -86.6 139.1 -63.5C149.6 -40.4 144.6 -10.2 137.5 17.8C130.3 45.7 121.1 71.3 105.9 95.5C90.7 119.6 69.6 142.3 45 146.5C20.4 150.6 -7.7 136.2 -39.1 128.9C-70.5 121.6 -105.1 121.4 -132.2 105.8C-159.2 90.3 -178.6 59.4 -184.4 25.9C-190.2 -7.6 -182.4 -43.7 -160.7 -66C-139 -88.2 -103.3 -96.7 -74.2 -109.6C-45.1 -122.4 -22.5 -139.7 1.4 -142C25.4 -144.2 50.8 -131.4 76.6 -117"
            fill="#e63ce0"></path>
    </g>
</svg>