<svg id="visual" viewBox="0 0 960 540" width="960" height="540" xmlns="http://www.w3.org/2000/svg" xmlns:xlink="http://www.w3.org/1999/xlink" version="1.1"><rect x="0" y="0" width="960" height="540" fill="#4b0d49"></rect><g transform="translate(450.1099747070957 232.21776945904753)"><path d="M124 -190.1C164 -167.2 202.1 -138.5 236.8 -97.8C271.5 -57.1 302.8 -4.5 289.3 36.8C275.9 78.1 217.6 108.1 177.2 152.1C136.8 196 114.2 253.9 72.4 282.6C30.7 311.2 -30.1 310.6 -84.1 292.1C-138 273.6 -185 237.3 -207.1 191C-229.2 144.7 -226.5 88.5 -228.9 36.2C-231.3 -16.1 -238.9 -64.3 -222.3 -101.9C-205.8 -139.5 -165.1 -166.5 -124 -188.9C-82.9 -211.3 -41.4 -229.2 0.3 -229.6C42 -230 84 -213 124 -190.1" fill="#e63ce0"></path></g></svg>