<svg id="visual" viewBox="0 0 960 300" width="960" height="300" xmlns="http://www.w3.org/2000/svg" xmlns:xlink="http://www.w3.org/1999/xlink" version="1.1"><rect x="0" y="0" width="960" height="300" fill="#223240"></rect><path d="M0 199L17.8 190.3C35.7 181.7 71.3 164.3 106.8 155C142.3 145.7 177.7 144.3 213.2 153.3C248.7 162.3 284.3 181.7 320 180.3C355.7 179 391.3 157 426.8 152.2C462.3 147.3 497.7 159.7 533.2 164.3C568.7 169 604.3 166 640 160.7C675.7 155.3 711.3 147.7 746.8 148.2C782.3 148.7 817.7 157.3 853.2 161C888.7 164.7 924.3 163.3 942.2 162.7L960 162L960 0L942.2 0C924.3 0 888.7 0 853.2 0C817.7 0 782.3 0 746.8 0C711.3 0 675.7 0 640 0C604.3 0 568.7 0 533.2 0C497.7 0 462.3 0 426.8 0C391.3 0 355.7 0 320 0C284.3 0 248.7 0 213.2 0C177.7 0 142.3 0 106.8 0C71.3 0 35.7 0 17.8 0L0 0Z" fill="#e63ce0"></path><path d="M0 152L17.8 152.7C35.7 153.3 71.3 154.7 106.8 158.8C142.3 163 177.7 170 213.2 171.5C248.7 173 284.3 169 320 159.3C355.7 149.7 391.3 134.3 426.8 125.7C462.3 117 497.7 115 533.2 122C568.7 129 604.3 145 640 154.3C675.7 163.7 711.3 166.3 746.8 169.3C782.3 172.3 817.7 175.7 853.2 176.2C888.7 176.7 924.3 174.3 942.2 173.2L960 172L960 0L942.2 0C924.3 0 888.7 0 853.2 0C817.7 0 782.3 0 746.8 0C711.3 0 675.7 0 640 0C604.3 0 568.7 0 533.2 0C497.7 0 462.3 0 426.8 0C391.3 0 355.7 0 320 0C284.3 0 248.7 0 213.2 0C177.7 0 142.3 0 106.8 0C71.3 0 35.7 0 17.8 0L0 0Z" fill="#bd2fb8"></path><path d="M0 95L17.8 101.2C35.7 107.3 71.3 119.7 106.8 126.8C142.3 134 177.7 136 213.2 132.5C248.7 129 284.3 120 320 118C355.7 116 391.3 121 426.8 116.2C462.3 111.3 497.7 96.7 533.2 93.3C568.7 90 604.3 98 640 108.2C675.7 118.3 711.3 130.7 746.8 133.8C782.3 137 817.7 131 853.2 122.3C888.7 113.7 924.3 102.3 942.2 96.7L960 91L960 0L942.2 0C924.3 0 888.7 0 853.2 0C817.7 0 782.3 0 746.8 0C711.3 0 675.7 0 640 0C604.3 0 568.7 0 533.2 0C497.7 0 462.3 0 426.8 0C391.3 0 355.7 0 320 0C284.3 0 248.7 0 213.2 0C177.7 0 142.3 0 106.8 0C71.3 0 35.7 0 17.8 0L0 0Z" fill="#952391"></path><path d="M0 55L17.8 58.8C35.7 62.7 71.3 70.3 106.8 76.5C142.3 82.7 177.7 87.3 213.2 86.2C248.7 85 284.3 78 320 79.5C355.7 81 391.3 91 426.8 88.5C462.3 86 497.7 71 533.2 67.2C568.7 63.3 604.3 70.7 640 71.8C675.7 73 711.3 68 746.8 68C782.3 68 817.7 73 853.2 74.8C888.7 76.7 924.3 75.3 942.2 74.7L960 74L960 0L942.2 0C924.3 0 888.7 0 853.2 0C817.7 0 782.3 0 746.8 0C711.3 0 675.7 0 640 0C604.3 0 568.7 0 533.2 0C497.7 0 462.3 0 426.8 0C391.3 0 355.7 0 320 0C284.3 0 248.7 0 213.2 0C177.7 0 142.3 0 106.8 0C71.3 0 35.7 0 17.8 0L0 0Z" fill="#6f186c"></path><path d="M0 30L17.8 32.5C35.7 35 71.3 40 106.8 39.7C142.3 39.3 177.7 33.7 213.2 31.8C248.7 30 284.3 32 320 32C355.7 32 391.3 30 426.8 31.2C462.3 32.3 497.7 36.7 533.2 41.5C568.7 46.3 604.3 51.7 640 49.8C675.7 48 711.3 39 746.8 34.3C782.3 29.7 817.7 29.3 853.2 33.8C888.7 38.3 924.3 47.7 942.2 52.3L960 57L960 0L942.2 0C924.3 0 888.7 0 853.2 0C817.7 0 782.3 0 746.8 0C711.3 0 675.7 0 640 0C604.3 0 568.7 0 533.2 0C497.7 0 462.3 0 426.8 0C391.3 0 355.7 0 320 0C284.3 0 248.7 0 213.2 0C177.7 0 142.3 0 106.8 0C71.3 0 35.7 0 17.8 0L0 0Z" fill="#4b0d49"></path></svg>