<?xml version="1.0" encoding="utf-8"?>
<!-- Generator: Adobe Illustrator 16.0.0, SVG Export Plug-In . SVG Version: 6.00 Build 0)  -->
<!DOCTYPE svg PUBLIC "-//W3C//DTD SVG 1.1//EN" "http://www.w3.org/Graphics/SVG/1.1/DTD/svg11.dtd">
<svg version="1.1" id="Layer_1" xmlns="http://www.w3.org/2000/svg" xmlns:xlink="http://www.w3.org/1999/xlink" x="0px" y="0px"
	 width="1500px" height="1500px" viewBox="0 0 1500 1500" enable-background="new 0 0 1500 1500" xml:space="preserve">
<g>
	<g>
		<defs>
			<path id="SVGID_1_" d="M102.291,603.97c-10.253,0-18.654,8.396-18.654,18.654v37.735v19.436v19.466v178.02
				c0,10.258,8.401,18.659,18.654,18.659h39.302c10.264,0,18.662-8.401,18.662-18.659v-178.02c0-10.264,8.39-18.662,18.648-18.662
				h101.396c10.267,0,18.668,8.398,18.668,18.662v101.154c0,10.271-8.401,18.646-18.668,18.646h-58.367
				c-10.258,0-18.657,8.415-18.657,18.662v39.315c0,10.258,8.398,18.651,18.657,18.651h58.367c10.267,0,18.668,0.014,18.668,0.014
				h18.654h39.32c10.253,0,18.657-8.396,18.657-18.646V622.651c0-10.259-8.404-18.654-18.657-18.654h-33.367
				c-10.267,0-18.657-0.008-18.657-0.008s-8.398-0.02-18.651-0.02H102.291z"/>
		</defs>
		<clipPath id="SVGID_2_">
			<use xlink:href="#SVGID_1_"  overflow="visible"/>
		</clipPath>
		
			<linearGradient id="SVGID_3_" gradientUnits="userSpaceOnUse" x1="598.562" y1="781.0898" x2="603.2256" y2="781.0898" gradientTransform="matrix(51.9091 45.5959 45.5959 -51.9091 -66586.1641 13889.1641)">
			<stop  offset="0" style="stop-color:#AECC50"/>
			<stop  offset="0.0049" style="stop-color:#AECC50"/>
			<stop  offset="0.6995" style="stop-color:#00853D"/>
			<stop  offset="0.9951" style="stop-color:#00603E"/>
			<stop  offset="1" style="stop-color:#00603E"/>
		</linearGradient>
		<polygon clip-path="url(#SVGID_2_)" fill="url(#SVGID_3_)" points="210.792,459.209 520.362,731.128 248.443,1040.698 
			-61.129,768.776 		"/>
	</g>
	<g>
		<defs>
			<rect id="SVGID_4_" x="68.316" y="589.605" width="1363.368" height="320.789"/>
		</defs>
		<clipPath id="SVGID_5_">
			<use xlink:href="#SVGID_4_"  overflow="visible"/>
		</clipPath>
		<path clip-path="url(#SVGID_5_)" d="M440.626,728.019h25.277v16.181h0.569c7.018-8.543,23.313-18.883,48.604-18.883
			c41.578,0,61.798,27.196,61.798,57.993c0,31.435-18.259,62.017-61.518,62.017c-25.288,0-39.612-7.856-47.771-18.42h-0.553v62.928
			h-26.407V728.019z M509.453,742.402c-28.654,0-42.419,21.794-42.419,43.138c0,19.109,12.358,42.703,42.139,42.703
			c28.373,0,40.173-25.386,39.612-43.354C549.345,764.196,538.098,742.402,509.453,742.402"/>
		<path clip-path="url(#SVGID_5_)" d="M609.754,736.108c13.21-6.293,28.931-10.792,47.193-10.792
			c41.02,0,57.593,16.188,57.593,47.423v47.427c0,13.028,0.564,19.106,1.119,22.462h-24.724v-14.826h-0.562
			c-6.181,6.961-20.219,17.524-44.382,17.524c-30.895,0-52.531-10.781-52.531-35.724c0-28.771,39.326-37.766,66.583-37.766
			c10.392,0,17.693,0,28.09,0.449c0-19.773-8.995-29.884-35.408-29.884c-14.882,0-30.9,4.493-41.57,11.685L609.754,736.108z
			 M688.134,788.026c-5.624,0-11.236-0.449-16.86-0.449c-14.327,0-49.723,1.792-49.723,22.025c0,12.135,14.615,18.641,26.696,18.641
			c26.118,0,39.887-13.025,39.887-30.107V788.026z"/>
		<path clip-path="url(#SVGID_5_)" d="M739.257,873.637c3.379,0.912,7.864,1.821,12.366,1.821c23.6,0,31.467-26.082,31.467-28.324
			c0-2.478-3.377-8.313-5.043-12.135l-48.61-106.98h28.92l38.502,94.85h0.555l39.355-94.85h26.664l-52.826,117.09
			c-9.824,22.02-20.223,47.425-55.043,47.425c-8.443,0-13.211-0.896-17.977-1.571L739.257,873.637z"/>
		<path clip-path="url(#SVGID_5_)" d="M972.16,747.342c-10.105-3.371-20.25-4.937-28.656-4.937
			c-29.496,0-46.049,21.112-46.049,42.926c0,20.448,13.74,42.912,47.75,42.912c8.971,0,20.219-2.236,28.369-6.506l1.938,18.872
			c-10.928,4.047-23.602,4.717-33.119,4.717c-43.279,0-73.031-27.191-73.031-59.995c0-34.849,29.213-60.015,73.031-60.015
			c10.672,0,24.422,2.019,32.01,4.499L972.16,747.342z"/>
		<path clip-path="url(#SVGID_5_)" d="M1060.098,725.316c43.566,0,72.76,25.171,72.76,60.015c0,32.804-29.768,59.995-72.76,59.995
			c-43.279,0-73.039-27.191-73.039-59.995C987.059,750.487,1016.279,725.316,1060.098,725.316 M1060.098,828.243
			c30.91,0,44.693-22.469,44.693-42.912c0-21.808-16.607-42.929-44.693-42.929c-28.373,0-44.945,21.121-44.945,42.929
			C1015.152,805.774,1028.92,828.243,1060.098,828.243"/>
		<path clip-path="url(#SVGID_5_)" d="M1158.701,728.019h24.732v16.633h0.555c10.117-13.272,24.441-19.335,45.514-19.335
			c16.6,0,33.154,6.748,40.738,22.257c9.836-16.412,31.473-22.257,44.375-22.257c36.523,0,49.729,18.878,49.729,43.83v73.483
			h-26.398v-68.317c0-14.149-4.199-31.91-25.578-31.91c-26.963,0-37.627,21.115-37.627,42.484v57.743h-26.408v-68.317
			c0-14.149-4.215-31.91-25.57-31.91c-26.971,0-37.662,21.115-37.662,42.484v57.743h-26.398V728.019z"/>
		<path clip-path="url(#SVGID_5_)" d="M1379.096,747.925c0-10.719,8.723-19.438,19.441-19.438c10.727,0,19.451,8.72,19.451,19.438
			c0,10.721-8.725,19.441-19.451,19.441C1387.818,767.366,1379.096,758.646,1379.096,747.925 M1413.246,747.925
			c0-9.104-6.586-15.658-14.709-15.658c-8.113,0-14.697,6.555-14.697,15.658c0,9.109,6.584,15.68,14.697,15.68
			C1406.66,763.604,1413.246,757.034,1413.246,747.925 M1391.053,736.836h8.195c5.271,0,8.131,1.827,8.131,6.454
			c0,3.782-2.148,5.604-5.754,5.931l5.918,9.635h-4.207l-5.727-9.466h-2.434v9.466h-4.123V736.836z M1395.176,746.267h3.58
			c2.432,0,4.518-0.324,4.518-3.293c0-2.59-2.359-3.015-4.473-3.015h-3.625V746.267z"/>
	</g>
</g>
</svg>
